<?xml version="1.0" encoding="utf-8"?>
<!-- Generator: Adobe Illustrator 27.0.1, SVG Export Plug-In . SVG Version: 6.00 Build 0)  -->
<svg version="1.1" id="Layer_1" xmlns="http://www.w3.org/2000/svg" xmlns:xlink="http://www.w3.org/1999/xlink" x="0px" y="0px"
	 viewBox="0 0 200 200" style="enable-background:new 0 0 200 200;" xml:space="preserve">
<style type="text/css">
	.st0{fill-rule:evenodd;clip-rule:evenodd;fill:#FFFFFF;}
	.st1{fill-rule:evenodd;clip-rule:evenodd;fill:#3ECC5F;}
	.st2{fill-rule:evenodd;clip-rule:evenodd;fill:#44D860;}
	.st3{fill-rule:evenodd;clip-rule:evenodd;}
	.st4{fill-rule:evenodd;clip-rule:evenodd;fill:#FFFF50;}
</style>
<g>
	<path class="st0" d="M129.2,27.2h48.1v19.5h-48.1V27.2z"/>
	<path class="st1" d="M85.6,90.8c-4.2,0-7.9-2.3-9.9-5.7c-1,1.7-1.5,3.7-1.5,5.7c0,6.3,5.1,11.5,11.5,11.5h11.5V90.8H85.6z"/>
	<path class="st1" d="M137.2,30.3l40.1-2.5V22c0-6.3-5.1-11.5-11.5-11.5h-51.6l-1.4-2.5c-0.6-1.1-2.2-1.1-2.9,0l-1.4,2.5l-1.4-2.5
		c-0.6-1.1-2.2-1.1-2.9,0l-1.4,2.5l-1.4-2.5c-0.6-1.1-2.2-1.1-2.9,0l-1.4,2.5c0,0,0,0,0,0l-2.4-2.4c-0.9-0.9-2.4-0.5-2.8,0.7
		l-0.8,2.9l-3-0.8c-1.2-0.3-2.4,0.8-2,2l0.8,3L84,16.8c-1.2,0.3-1.6,1.9-0.7,2.8l2.4,2.4c0,0,0,0,0,0l-2.5,1.4
		c-1.1,0.6-1.1,2.2,0,2.9l2.5,1.4l-2.5,1.4c-1.1,0.6-1.1,2.2,0,2.9l2.5,1.4l-2.5,1.4c-1.1,0.6-1.1,2.2,0,2.9l2.5,1.4l-2.5,1.4
		c-1.1,0.6-1.1,2.2,0,2.9l2.5,1.4l-2.5,1.4c-1.1,0.6-1.1,2.2,0,2.9l2.5,1.4l-2.5,1.4c-1.1,0.6-1.1,2.2,0,2.9l2.5,1.4l-2.5,1.4
		c-1.1,0.6-1.1,2.2,0,2.9l2.5,1.4l-2.5,1.4c-1.1,0.6-1.1,2.2,0,2.9l2.5,1.4l-2.5,1.4c-1.1,0.6-1.1,2.2,0,2.9l2.5,1.4L83.2,75
		c-1.1,0.6-1.1,2.2,0,2.9l2.5,1.4l-2.5,1.4c-1.1,0.6-1.1,2.2,0,2.9l2.5,1.4l-2.5,1.4c-1.1,0.6-1.1,2.2,0,2.9l2.5,1.4
		c0,6.3,5.1,11.5,11.5,11.5h68.7c6.3,0,11.5-5.1,11.5-11.5V44.9l-40.1-2.5c-3.2-0.2-5.7-2.9-5.7-6.1C131.5,33.1,134,30.5,137.2,30.3
		"/>
	<path class="st1" d="M154.4,102.2h17.2V79.3h-17.2V102.2z"/>
	<path class="st2" d="M183,87.9c-0.1,0-0.2,0-0.4,0c0-0.1,0-0.2-0.1-0.3c1.5-0.6,2.1-2.3,1.5-3.7c-0.4-1.1-1.5-1.8-2.6-1.8
		c-0.6,0-1.2,0.2-1.7,0.6c-0.1-0.1-0.1-0.1-0.2-0.2c0.4-0.5,0.6-1.1,0.6-1.7c0-1.6-1.3-2.9-2.9-2.9c-1.1,0-2.2,0.7-2.6,1.7
		c-0.1,0-0.2,0-0.3-0.1c0-0.1,0-0.2,0-0.4c0-1.6-1.3-2.9-2.9-2.9s-2.9,1.3-2.9,2.9c0,0.1,0,0.2,0,0.4c-0.1,0-0.2,0-0.3,0.1
		c-0.6-1.5-2.3-2.1-3.8-1.5c-1.1,0.4-1.7,1.5-1.7,2.6c0,0.6,0.2,1.2,0.6,1.7c-2.1,2.1-3.5,5-3.5,8.2c0,6.3,5.1,11.5,11.5,11.5
		c5.3,0,9.8-3.7,11.1-8.6c0.1,0,0.2,0,0.4,0c1.6,0,2.9-1.3,2.9-2.9C185.9,89.2,184.6,87.9,183,87.9"/>
	<path class="st1" d="M160.1,67.8h17.2V56.4h-17.2V67.8z"/>
	<path class="st2" d="M183,63.5c0.8,0,1.4-0.6,1.4-1.4c0-0.8-0.6-1.4-1.4-1.4c-0.1,0-0.1,0-0.2,0c0,0,0-0.1,0-0.1
		c0.7-0.3,1.1-1.1,0.8-1.9c-0.2-0.5-0.7-0.9-1.3-0.9c-0.3,0-0.6,0.1-0.9,0.3c0,0-0.1-0.1-0.1-0.1c0.2-0.2,0.3-0.5,0.3-0.9
		c0-0.8-0.6-1.4-1.4-1.4c-0.6,0-1.1,0.3-1.3,0.9c-0.5-0.1-1-0.2-1.5-0.2c-3.2,0-5.7,2.6-5.7,5.7c0,3.2,2.6,5.7,5.7,5.7
		c0.5,0,1-0.1,1.5-0.2c0.3,0.7,1.2,1.1,1.9,0.8c0.5-0.2,0.9-0.7,0.9-1.3c0-0.3-0.1-0.6-0.3-0.9c0,0,0.1-0.1,0.1-0.1
		c0.2,0.2,0.5,0.3,0.9,0.3c0.8,0,1.4-0.6,1.4-1.4c0-0.6-0.3-1.1-0.9-1.3c0,0,0-0.1,0-0.1C182.9,63.5,183,63.5,183,63.5"/>
	<path class="st3" d="M108.5,29.2c-0.8,0-1.4-0.6-1.4-1.4c0-2.4-1.9-4.3-4.3-4.3s-4.3,1.9-4.3,4.3c0,0.8-0.6,1.4-1.4,1.4
		s-1.4-0.6-1.4-1.4c0-3.9,3.2-7.2,7.2-7.2s7.2,3.2,7.2,7.2C110,28.5,109.3,29.2,108.5,29.2"/>
	<path class="st4" d="M131.5,102.2h34.4c6.3,0,11.5-5.1,11.5-11.5V50.7h-34.4c-6.3,0-11.5,5.1-11.5,11.5V102.2z"/>
	<path class="st3" d="M168.7,68.4H140c-0.3,0-0.6-0.3-0.6-0.6c0-0.3,0.3-0.6,0.6-0.6h28.7c0.3,0,0.6,0.3,0.6,0.6
		C169.3,68.2,169,68.4,168.7,68.4 M168.7,79.9H140c-0.3,0-0.6-0.3-0.6-0.6s0.3-0.6,0.6-0.6h28.7c0.3,0,0.6,0.3,0.6,0.6
		S169,79.9,168.7,79.9 M168.7,91.3H140c-0.3,0-0.6-0.3-0.6-0.6s0.3-0.6,0.6-0.6h28.7c0.3,0,0.6,0.3,0.6,0.6S169,91.3,168.7,91.3
		 M168.7,62.8H140c-0.3,0-0.6-0.3-0.6-0.6c0-0.3,0.3-0.6,0.6-0.6h28.7c0.3,0,0.6,0.3,0.6,0.6C169.3,62.5,169,62.8,168.7,62.8
		 M168.7,74.1H140c-0.3,0-0.6-0.3-0.6-0.6s0.3-0.6,0.6-0.6h28.7c0.3,0,0.6,0.3,0.6,0.6S169,74.1,168.7,74.1 M168.7,85.6H140
		c-0.3,0-0.6-0.3-0.6-0.6s0.3-0.6,0.6-0.6h28.7c0.3,0,0.6,0.3,0.6,0.6S169,85.6,168.7,85.6 M177.3,32.7
		C177.3,32.7,177.3,32.7,177.3,32.7c-1.8,0.1-2.6,1.8-3.4,3.4c-0.8,1.6-1.4,2.7-2.3,2.7c-1.1,0-1.7-1.3-2.4-2.6
		c-0.8-1.5-1.6-3.2-3.4-3.1c-1.7,0.1-2.6,1.6-3.3,3c-0.8,1.4-1.3,2.3-2.4,2.3c-1.1,0-1.7-1-2.4-2.2c-0.8-1.3-1.6-2.7-3.4-2.7
		c-1.7,0.1-2.6,1.4-3.3,2.5c-0.8,1.2-1.3,2-2.4,1.9c-1.1,0-1.7-0.9-2.4-1.8c-0.8-1.1-1.6-2.3-3.4-2.2c-1.7,0.1-2.5,1.1-3.3,2.1
		c-0.7,0.9-1.3,1.6-2.4,1.6c-0.3,0-0.6,0.2-0.6,0.6c0,0.3,0.2,0.6,0.6,0.6c1.7,0.1,2.6-1,3.4-2c0.7-0.9,1.3-1.6,2.4-1.6
		c1.1,0,1.6,0.6,2.4,1.7c0.7,1.1,1.6,2.2,3.3,2.3c1.8,0.1,2.6-1.3,3.4-2.4c0.7-1.1,1.3-2,2.4-2c1,0,1.6,0.8,2.4,2.1
		c0.7,1.3,1.6,2.7,3.3,2.7c1.8,0.1,2.7-1.5,3.4-2.9c0.7-1.2,1.3-2.3,2.4-2.4c1,0,1.6,0.9,2.4,2.5c0.7,1.5,1.6,3.1,3.3,3.2l0.1,0
		c1.8,0,2.6-1.8,3.3-3.3c0.7-1.4,1.3-2.7,2.3-2.7C177.3,33.8,177.3,32.7,177.3,32.7z"/>
	<path class="st1" d="M120,102.2h22.9V79.3H120V102.2z"/>
	<path class="st2" d="M154.4,87.9c-0.1,0-0.2,0-0.4,0c0-0.1,0-0.2-0.1-0.3c1.5-0.6,2.1-2.3,1.5-3.7c-0.4-1.1-1.5-1.8-2.6-1.8
		c-0.6,0-1.2,0.2-1.7,0.6c-0.1-0.1-0.1-0.1-0.2-0.2c0.4-0.5,0.6-1.1,0.6-1.7c0-1.6-1.3-2.9-2.9-2.9c-1.1,0-2.2,0.7-2.6,1.7
		c-0.1,0-0.2,0-0.3-0.1c0-0.1,0-0.2,0-0.4c0-1.6-1.3-2.9-2.9-2.9c-1.6,0-2.9,1.3-2.9,2.9c0,0.1,0,0.2,0,0.4c-0.1,0-0.2,0-0.3,0.1
		c-0.6-1.5-2.3-2.1-3.8-1.5c-1.1,0.4-1.7,1.5-1.7,2.6c0,0.6,0.2,1.2,0.6,1.7c-2.1,2.1-3.5,5-3.5,8.2c0,6.3,5.1,11.5,11.5,11.5
		c5.3,0,9.8-3.7,11.1-8.6c0.1,0,0.2,0,0.4,0c1.6,0,2.9-1.3,2.9-2.9C157.2,89.2,156,87.9,154.4,87.9"/>
	<path class="st1" d="M120,67.8h22.9V56.4H120V67.8z"/>
	<path class="st2" d="M148.6,63.5c0.8,0,1.4-0.6,1.4-1.4c0-0.8-0.6-1.4-1.4-1.4c-0.1,0-0.1,0-0.2,0c0,0,0-0.1,0-0.1
		c0.7-0.3,1.1-1.1,0.8-1.9c-0.2-0.5-0.7-0.9-1.3-0.9c-0.3,0-0.6,0.1-0.9,0.3c0,0-0.1-0.1-0.1-0.1c0.2-0.2,0.3-0.5,0.3-0.9
		c0-0.8-0.6-1.4-1.4-1.4c-0.6,0-1.1,0.3-1.3,0.9c-0.5-0.1-1-0.2-1.5-0.2c-3.2,0-5.7,2.6-5.7,5.7c0,3.2,2.6,5.7,5.7,5.7
		c0.5,0,1.1-0.1,1.5-0.2c0.3,0.7,1.2,1.1,1.9,0.8c0.5-0.2,0.9-0.7,0.9-1.3c0-0.3-0.1-0.6-0.3-0.9c0,0,0.1-0.1,0.1-0.1
		c0.2,0.2,0.5,0.3,0.9,0.3c0.8,0,1.4-0.6,1.4-1.4c0-0.6-0.3-1.1-0.9-1.3c0,0,0-0.1,0-0.1C148.5,63.5,148.6,63.5,148.6,63.5"/>
	<path class="st3" d="M154.4,21.3c-0.1,0-0.2,0-0.3,0c-0.1,0-0.2,0-0.3-0.1c-0.1,0-0.2-0.1-0.2-0.1c-0.1-0.1-0.1-0.1-0.2-0.2
		c-0.1-0.1-0.1-0.1-0.2-0.2c-0.1-0.1-0.1-0.2-0.1-0.2c-0.1-0.2-0.1-0.4-0.1-0.5c0-0.1,0-0.2,0-0.3c0-0.1,0-0.2,0.1-0.3
		c0-0.1,0.1-0.2,0.1-0.2c0.1-0.1,0.1-0.1,0.2-0.2c0.1-0.1,0.1-0.1,0.2-0.2c0.1-0.1,0.2-0.1,0.2-0.1c0.1,0,0.2-0.1,0.3-0.1
		c0.2,0,0.4,0,0.6,0c0.1,0,0.2,0,0.3,0.1c0.1,0,0.2,0.1,0.2,0.1c0.1,0.1,0.1,0.1,0.2,0.2c0.1,0.1,0.1,0.1,0.2,0.2
		c0.1,0.1,0.1,0.2,0.1,0.2c0,0.1,0.1,0.2,0.1,0.3c0,0.1,0,0.2,0,0.3c0,0.4-0.2,0.8-0.4,1c-0.1,0.1-0.1,0.1-0.2,0.2
		c-0.1,0.1-0.2,0.1-0.2,0.1C154.8,21.3,154.6,21.3,154.4,21.3 M165.8,20.6c-0.4,0-0.7-0.2-1-0.4c-0.1-0.1-0.1-0.1-0.2-0.2
		c-0.1-0.1-0.1-0.2-0.1-0.2c-0.1-0.2-0.1-0.4-0.1-0.5c0-0.4,0.2-0.7,0.4-1c0.1-0.1,0.1-0.1,0.2-0.2c0.1-0.1,0.2-0.1,0.2-0.1
		c0.1,0,0.2-0.1,0.3-0.1c0.2,0,0.4,0,0.6,0c0.1,0,0.2,0,0.3,0.1c0.1,0,0.2,0.1,0.2,0.1c0.1,0.1,0.1,0.1,0.2,0.2
		c0.3,0.3,0.4,0.6,0.4,1c0,0.1,0,0.2,0,0.3c0,0.1,0,0.2-0.1,0.3c0,0.1-0.1,0.2-0.1,0.2c-0.1,0.1-0.1,0.1-0.2,0.2
		c-0.1,0.1-0.1,0.1-0.2,0.2c-0.1,0.1-0.2,0.1-0.2,0.1C166.2,20.6,166,20.6,165.8,20.6"/>
</g>
<g>
	<path class="st0" d="M102,73h48.1v19.5H102V73z"/>
	<path class="st1" d="M58.5,136.6c-4.2,0-7.9-2.3-9.9-5.7c-1,1.7-1.5,3.7-1.5,5.7c0,6.3,5.1,11.5,11.5,11.5h11.5v-11.5H58.5z"/>
	<path class="st1" d="M110,76.1l40.1-2.5v-5.7c0-6.3-5.1-11.5-11.5-11.5H87.1l-1.4-2.5c-0.6-1.1-2.2-1.1-2.9,0l-1.4,2.5L80,53.9
		c-0.6-1.1-2.2-1.1-2.9,0l-1.4,2.5l-1.4-2.5c-0.6-1.1-2.2-1.1-2.9,0l-1.4,2.5c0,0,0,0,0,0L67.5,54c-0.9-0.9-2.4-0.5-2.8,0.7L64,57.7
		l-3-0.8c-1.2-0.3-2.4,0.8-2,2l0.8,3l-2.9,0.8c-1.2,0.3-1.6,1.9-0.7,2.8l2.4,2.4c0,0,0,0,0,0L56,69.3c-1.1,0.6-1.1,2.2,0,2.9
		l2.5,1.4L56,75c-1.1,0.6-1.1,2.2,0,2.9l2.5,1.4L56,80.8c-1.1,0.6-1.1,2.2,0,2.9l2.5,1.4L56,86.5c-1.1,0.6-1.1,2.2,0,2.9l2.5,1.4
		L56,92.2c-1.1,0.6-1.1,2.2,0,2.9l2.5,1.4L56,97.9c-1.1,0.6-1.1,2.2,0,2.9l2.5,1.4l-2.5,1.4c-1.1,0.6-1.1,2.2,0,2.9l2.5,1.4
		l-2.5,1.4c-1.1,0.6-1.1,2.2,0,2.9l2.5,1.4l-2.5,1.4c-1.1,0.6-1.1,2.2,0,2.9l2.5,1.4l-2.5,1.4c-1.1,0.6-1.1,2.2,0,2.9l2.5,1.4
		l-2.5,1.4c-1.1,0.6-1.1,2.2,0,2.9l2.5,1.4l-2.5,1.4c-1.1,0.6-1.1,2.2,0,2.9l2.5,1.4c0,6.3,5.1,11.5,11.5,11.5h68.7
		c6.3,0,11.5-5.1,11.5-11.5V90.8L110,88.3c-3.2-0.2-5.7-2.9-5.7-6.1C104.3,79,106.8,76.3,110,76.1"/>
	<path class="st1" d="M127.2,148.1h17.2v-22.9h-17.2V148.1z"/>
	<path class="st2" d="M155.9,133.7c-0.1,0-0.2,0-0.4,0c0-0.1,0-0.2-0.1-0.3c1.5-0.6,2.1-2.3,1.5-3.7c-0.4-1.1-1.5-1.8-2.6-1.8
		c-0.6,0-1.2,0.2-1.7,0.6c-0.1-0.1-0.1-0.1-0.2-0.2c0.4-0.5,0.6-1.1,0.6-1.7c0-1.6-1.3-2.9-2.9-2.9c-1.1,0-2.2,0.7-2.6,1.7
		c-0.1,0-0.2,0-0.3-0.1c0-0.1,0-0.2,0-0.4c0-1.6-1.3-2.9-2.9-2.9c-1.6,0-2.9,1.3-2.9,2.9c0,0.1,0,0.2,0,0.4c-0.1,0-0.2,0-0.3,0.1
		c-0.6-1.5-2.3-2.1-3.8-1.5c-1.1,0.4-1.7,1.5-1.7,2.6c0,0.6,0.2,1.2,0.6,1.7c-2.1,2.1-3.5,5-3.5,8.2c0,6.3,5.1,11.5,11.5,11.5
		c5.3,0,9.8-3.7,11.1-8.6c0.1,0,0.2,0,0.4,0c1.6,0,2.9-1.3,2.9-2.9C158.7,135,157.4,133.7,155.9,133.7"/>
	<path class="st1" d="M133,113.7h17.2v-11.5H133V113.7z"/>
	<path class="st2" d="M155.9,109.4c0.8,0,1.4-0.6,1.4-1.4c0-0.8-0.6-1.4-1.4-1.4c-0.1,0-0.1,0-0.2,0c0,0,0-0.1,0-0.1
		c0.7-0.3,1.1-1.1,0.8-1.9c-0.2-0.5-0.7-0.9-1.3-0.9c-0.3,0-0.6,0.1-0.9,0.3c0,0-0.1-0.1-0.1-0.1c0.2-0.2,0.3-0.5,0.3-0.9
		c0-0.8-0.6-1.4-1.4-1.4c-0.6,0-1.1,0.3-1.3,0.9c-0.5-0.1-1-0.2-1.5-0.2c-3.2,0-5.7,2.6-5.7,5.7s2.6,5.7,5.7,5.7
		c0.5,0,1-0.1,1.5-0.2c0.3,0.7,1.2,1.1,1.9,0.8c0.5-0.2,0.9-0.7,0.9-1.3c0-0.3-0.1-0.6-0.3-0.9c0,0,0.1-0.1,0.1-0.1
		c0.2,0.2,0.5,0.3,0.9,0.3c0.8,0,1.4-0.6,1.4-1.4c0-0.6-0.3-1.1-0.9-1.3c0,0,0-0.1,0-0.1C155.7,109.4,155.8,109.4,155.9,109.4"/>
	<path class="st3" d="M81.4,75c-0.8,0-1.4-0.6-1.4-1.4c0-2.4-1.9-4.3-4.3-4.3s-4.3,1.9-4.3,4.3c0,0.8-0.6,1.4-1.4,1.4
		s-1.4-0.6-1.4-1.4c0-3.9,3.2-7.2,7.2-7.2s7.2,3.2,7.2,7.2C82.8,74.4,82.2,75,81.4,75"/>
	<path class="st4" d="M104.3,148.1h34.4c6.3,0,11.5-5.1,11.5-11.5V96.5h-34.4c-6.3,0-11.5,5.1-11.5,11.5V148.1z"/>
	<path class="st3" d="M141.6,114.3h-28.7c-0.3,0-0.6-0.3-0.6-0.6c0-0.3,0.3-0.6,0.6-0.6h28.7c0.3,0,0.6,0.3,0.6,0.6
		C142.1,114,141.9,114.3,141.6,114.3 M141.6,125.7h-28.7c-0.3,0-0.6-0.3-0.6-0.6s0.3-0.6,0.6-0.6h28.7c0.3,0,0.6,0.3,0.6,0.6
		S141.9,125.7,141.6,125.7 M141.6,137.2h-28.7c-0.3,0-0.6-0.3-0.6-0.6c0-0.3,0.3-0.6,0.6-0.6h28.7c0.3,0,0.6,0.3,0.6,0.6
		C142.1,136.9,141.9,137.2,141.6,137.2 M141.6,108.6h-28.7c-0.3,0-0.6-0.3-0.6-0.6c0-0.3,0.3-0.6,0.6-0.6h28.7
		c0.3,0,0.6,0.3,0.6,0.6C142.1,108.4,141.9,108.6,141.6,108.6 M141.6,120h-28.7c-0.3,0-0.6-0.3-0.6-0.6s0.3-0.6,0.6-0.6h28.7
		c0.3,0,0.6,0.3,0.6,0.6S141.9,120,141.6,120 M141.6,131.4h-28.7c-0.3,0-0.6-0.3-0.6-0.6c0-0.3,0.3-0.6,0.6-0.6h28.7
		c0.3,0,0.6,0.3,0.6,0.6C142.1,131.2,141.9,131.4,141.6,131.4 M150.1,78.5C150.1,78.5,150.1,78.5,150.1,78.5
		c-1.8,0.1-2.6,1.8-3.4,3.4c-0.8,1.6-1.4,2.7-2.3,2.7c-1.1,0-1.7-1.3-2.4-2.6c-0.8-1.5-1.6-3.2-3.4-3.1c-1.7,0.1-2.6,1.6-3.3,3
		c-0.8,1.4-1.3,2.3-2.4,2.3c-1.1,0-1.7-1-2.4-2.2c-0.8-1.3-1.6-2.7-3.4-2.7c-1.7,0.1-2.6,1.4-3.3,2.5c-0.8,1.2-1.3,2-2.4,1.9
		c-1.1,0-1.7-0.9-2.4-1.8c-0.8-1.1-1.6-2.3-3.4-2.2c-1.7,0.1-2.5,1.1-3.3,2.1c-0.7,0.9-1.3,1.6-2.4,1.6c-0.3,0-0.6,0.2-0.6,0.6
		c0,0.3,0.2,0.6,0.6,0.6c1.7,0.1,2.6-1,3.4-2c0.7-0.9,1.3-1.6,2.4-1.6c1.1,0,1.6,0.6,2.4,1.7c0.7,1.1,1.6,2.2,3.3,2.3
		c1.8,0.1,2.6-1.3,3.4-2.4c0.7-1.1,1.3-2,2.4-2c1,0,1.6,0.8,2.4,2.1c0.7,1.3,1.6,2.7,3.3,2.7c1.8,0.1,2.7-1.5,3.4-2.9
		c0.7-1.2,1.3-2.3,2.4-2.4c1,0,1.6,0.9,2.4,2.5c0.7,1.5,1.6,3.1,3.3,3.2l0.1,0c1.8,0,2.6-1.8,3.3-3.3c0.7-1.4,1.3-2.7,2.3-2.7
		C150.1,79.7,150.1,78.5,150.1,78.5z"/>
	<path class="st1" d="M92.9,148.1h22.9v-22.9H92.9V148.1z"/>
	<path class="st2" d="M127.2,133.7c-0.1,0-0.2,0-0.4,0c0-0.1,0-0.2-0.1-0.3c1.5-0.6,2.1-2.3,1.5-3.7c-0.4-1.1-1.5-1.8-2.6-1.8
		c-0.6,0-1.2,0.2-1.7,0.6c-0.1-0.1-0.1-0.1-0.2-0.2c0.4-0.5,0.6-1.1,0.6-1.7c0-1.6-1.3-2.9-2.9-2.9c-1.1,0-2.2,0.7-2.6,1.7
		c-0.1,0-0.2,0-0.3-0.1c0-0.1,0-0.2,0-0.4c0-1.6-1.3-2.9-2.9-2.9s-2.9,1.3-2.9,2.9c0,0.1,0,0.2,0,0.4c-0.1,0-0.2,0-0.3,0.1
		c-0.6-1.5-2.3-2.1-3.8-1.5c-1.1,0.4-1.7,1.5-1.7,2.6c0,0.6,0.2,1.2,0.6,1.7c-2.1,2.1-3.5,5-3.5,8.2c0,6.3,5.1,11.5,11.5,11.5
		c5.3,0,9.8-3.7,11.1-8.6c0.1,0,0.2,0,0.4,0c1.6,0,2.9-1.3,2.9-2.9C130.1,135,128.8,133.7,127.2,133.7"/>
	<path class="st1" d="M92.9,113.7h22.9v-11.5H92.9V113.7z"/>
	<path class="st2" d="M121.5,109.4c0.8,0,1.4-0.6,1.4-1.4c0-0.8-0.6-1.4-1.4-1.4c-0.1,0-0.1,0-0.2,0c0,0,0-0.1,0-0.1
		c0.7-0.3,1.1-1.1,0.8-1.9c-0.2-0.5-0.7-0.9-1.3-0.9c-0.3,0-0.6,0.1-0.9,0.3c0,0-0.1-0.1-0.1-0.1c0.2-0.2,0.3-0.5,0.3-0.9
		c0-0.8-0.6-1.4-1.4-1.4c-0.6,0-1.1,0.3-1.3,0.9c-0.5-0.1-1-0.2-1.5-0.2c-3.2,0-5.7,2.6-5.7,5.7s2.6,5.7,5.7,5.7
		c0.5,0,1-0.1,1.5-0.2c0.3,0.7,1.2,1.1,1.9,0.8c0.5-0.2,0.9-0.7,0.9-1.3c0-0.3-0.1-0.6-0.3-0.9c0,0,0.1-0.1,0.1-0.1
		c0.2,0.2,0.5,0.3,0.9,0.3c0.8,0,1.4-0.6,1.4-1.4c0-0.6-0.3-1.1-0.9-1.3c0,0,0-0.1,0-0.1C121.4,109.4,121.4,109.4,121.5,109.4"/>
	<path class="st3" d="M127.2,67.1c-0.1,0-0.2,0-0.3,0c-0.1,0-0.2,0-0.3-0.1c-0.1,0-0.2-0.1-0.2-0.1c-0.1-0.1-0.1-0.1-0.2-0.2
		c-0.1-0.1-0.1-0.1-0.2-0.2c-0.1-0.1-0.1-0.2-0.1-0.2c-0.1-0.2-0.1-0.4-0.1-0.5c0-0.1,0-0.2,0-0.3c0-0.1,0-0.2,0.1-0.3
		c0-0.1,0.1-0.2,0.1-0.2c0.1-0.1,0.1-0.1,0.2-0.2c0.1-0.1,0.1-0.1,0.2-0.2c0.1-0.1,0.2-0.1,0.2-0.1c0.1,0,0.2-0.1,0.3-0.1
		c0.2,0,0.4,0,0.6,0c0.1,0,0.2,0,0.3,0.1c0.1,0,0.2,0.1,0.2,0.1c0.1,0.1,0.1,0.1,0.2,0.2c0.1,0.1,0.1,0.1,0.2,0.2
		c0.1,0.1,0.1,0.2,0.1,0.2c0,0.1,0.1,0.2,0.1,0.3c0,0.1,0,0.2,0,0.3c0,0.4-0.2,0.8-0.4,1c-0.1,0.1-0.1,0.1-0.2,0.2
		c-0.1,0.1-0.2,0.1-0.2,0.1C127.6,67.1,127.4,67.1,127.2,67.1 M138.7,66.4c-0.4,0-0.7-0.2-1-0.4c-0.1-0.1-0.1-0.1-0.2-0.2
		c-0.1-0.1-0.1-0.2-0.1-0.2c-0.1-0.2-0.1-0.4-0.1-0.5c0-0.4,0.2-0.7,0.4-1c0.1-0.1,0.1-0.1,0.2-0.2c0.1-0.1,0.2-0.1,0.2-0.1
		c0.1,0,0.2-0.1,0.3-0.1c0.2,0,0.4,0,0.6,0c0.1,0,0.2,0,0.3,0.1c0.1,0,0.2,0.1,0.2,0.1c0.1,0.1,0.1,0.1,0.2,0.2
		c0.3,0.3,0.4,0.6,0.4,1c0,0.1,0,0.2,0,0.3c0,0.1,0,0.2-0.1,0.3c0,0.1-0.1,0.2-0.1,0.2c-0.1,0.1-0.1,0.1-0.2,0.2
		c-0.1,0.1-0.1,0.1-0.2,0.2c-0.1,0.1-0.2,0.1-0.2,0.1C139.1,66.4,138.9,66.4,138.7,66.4"/>
</g>
<g>
	<path class="st0" d="M74.8,118.8h48.1v19.5H74.8V118.8z"/>
	<path class="st1" d="M31.3,182.4c-4.2,0-7.9-2.3-9.9-5.7c-1,1.7-1.5,3.7-1.5,5.7c0,6.3,5.1,11.5,11.5,11.5h11.5v-11.5H31.3z"/>
	<path class="st1" d="M82.8,121.9l40.1-2.5v-5.7c0-6.3-5.1-11.5-11.5-11.5H59.9l-1.4-2.5c-0.6-1.1-2.2-1.1-2.9,0l-1.4,2.5l-1.4-2.5
		c-0.6-1.1-2.2-1.1-2.9,0l-1.4,2.5L47,99.8c-0.6-1.1-2.2-1.1-2.9,0l-1.4,2.5c0,0,0,0,0,0l-2.4-2.4c-0.9-0.9-2.4-0.5-2.8,0.7
		l-0.8,2.9l-3-0.8c-1.2-0.3-2.4,0.8-2,2l0.8,3l-2.9,0.8c-1.2,0.3-1.6,1.9-0.7,2.8l2.4,2.4c0,0,0,0,0,0l-2.5,1.4
		c-1.1,0.6-1.1,2.2,0,2.9l2.5,1.4l-2.5,1.4c-1.1,0.6-1.1,2.2,0,2.9l2.5,1.4l-2.5,1.4c-1.1,0.6-1.1,2.2,0,2.9l2.5,1.4l-2.5,1.4
		c-1.1,0.6-1.1,2.2,0,2.9l2.5,1.4l-2.5,1.4c-1.1,0.6-1.1,2.2,0,2.9l2.5,1.4l-2.5,1.4c-1.1,0.6-1.1,2.2,0,2.9l2.5,1.4l-2.5,1.4
		c-1.1,0.6-1.1,2.2,0,2.9l2.5,1.4l-2.5,1.4c-1.1,0.6-1.1,2.2,0,2.9l2.5,1.4l-2.5,1.4c-1.1,0.6-1.1,2.2,0,2.9l2.5,1.4l-2.5,1.4
		c-1.1,0.6-1.1,2.2,0,2.9l2.5,1.4l-2.5,1.4c-1.1,0.6-1.1,2.2,0,2.9l2.5,1.4l-2.5,1.4c-1.1,0.6-1.1,2.2,0,2.9l2.5,1.4
		c0,6.3,5.1,11.5,11.5,11.5h68.7c6.3,0,11.5-5.1,11.5-11.5v-45.8l-40.1-2.5c-3.2-0.2-5.7-2.9-5.7-6.1
		C77.1,124.8,79.6,122.1,82.8,121.9"/>
	<path class="st1" d="M100,193.9h17.2V171H100V193.9z"/>
	<path class="st2" d="M128.7,179.6c-0.1,0-0.2,0-0.4,0c0-0.1,0-0.2-0.1-0.3c1.5-0.6,2.1-2.3,1.5-3.7c-0.4-1.1-1.5-1.8-2.6-1.8
		c-0.6,0-1.2,0.2-1.7,0.6c-0.1-0.1-0.1-0.1-0.2-0.2c0.4-0.5,0.6-1.1,0.6-1.7c0-1.6-1.3-2.9-2.9-2.9c-1.1,0-2.2,0.7-2.6,1.7
		c-0.1,0-0.2,0-0.3-0.1c0-0.1,0-0.2,0-0.4c0-1.6-1.3-2.9-2.9-2.9c-1.6,0-2.9,1.3-2.9,2.9c0,0.1,0,0.2,0,0.4c-0.1,0-0.2,0-0.3,0.1
		c-0.6-1.5-2.3-2.1-3.8-1.5c-1.1,0.4-1.7,1.5-1.7,2.6c0,0.6,0.2,1.2,0.6,1.7c-2.1,2.1-3.5,5-3.5,8.2c0,6.3,5.1,11.5,11.5,11.5
		c5.3,0,9.8-3.7,11.1-8.6c0.1,0,0.2,0,0.4,0c1.6,0,2.9-1.3,2.9-2.9S130.2,179.6,128.7,179.6"/>
	<path class="st1" d="M105.7,159.5h17.2v-11.5h-17.2V159.5z"/>
	<path class="st2" d="M128.7,155.2c0.8,0,1.4-0.6,1.4-1.4s-0.6-1.4-1.4-1.4c-0.1,0-0.1,0-0.2,0c0,0,0-0.1,0-0.1
		c0.7-0.3,1.1-1.1,0.8-1.9c-0.2-0.5-0.7-0.9-1.3-0.9c-0.3,0-0.6,0.1-0.9,0.3c0,0-0.1-0.1-0.1-0.1c0.2-0.2,0.3-0.5,0.3-0.9
		c0-0.8-0.6-1.4-1.4-1.4c-0.6,0-1.1,0.3-1.3,0.9c-0.5-0.1-1-0.2-1.5-0.2c-3.2,0-5.7,2.6-5.7,5.7c0,3.2,2.6,5.7,5.7,5.7
		c0.5,0,1-0.1,1.5-0.2c0.3,0.7,1.2,1.1,1.9,0.8c0.5-0.2,0.9-0.7,0.9-1.3c0-0.3-0.1-0.6-0.3-0.9c0,0,0.1-0.1,0.1-0.1
		c0.2,0.2,0.5,0.3,0.9,0.3c0.8,0,1.4-0.6,1.4-1.4c0-0.6-0.3-1.1-0.9-1.3c0,0,0-0.1,0-0.1C128.5,155.2,128.6,155.2,128.7,155.2"/>
	<path class="st3" d="M54.2,120.8c-0.8,0-1.4-0.6-1.4-1.4c0-2.4-1.9-4.3-4.3-4.3c-2.4,0-4.3,1.9-4.3,4.3c0,0.8-0.6,1.4-1.4,1.4
		s-1.4-0.6-1.4-1.4c0-3.9,3.2-7.2,7.2-7.2s7.2,3.2,7.2,7.2C55.6,120.2,55,120.8,54.2,120.8"/>
	<path class="st4" d="M77.1,193.9h34.4c6.3,0,11.5-5.1,11.5-11.5v-40.1H88.6c-6.3,0-11.5,5.1-11.5,11.5V193.9z"/>
	<path class="st3" d="M114.3,160.1H85.7c-0.3,0-0.6-0.3-0.6-0.6c0-0.3,0.3-0.6,0.6-0.6h28.7c0.3,0,0.6,0.3,0.6,0.6
		C114.9,159.8,114.7,160.1,114.3,160.1 M114.3,171.5H85.7c-0.3,0-0.6-0.3-0.6-0.6c0-0.3,0.3-0.6,0.6-0.6h28.7c0.3,0,0.6,0.3,0.6,0.6
		C114.9,171.3,114.7,171.5,114.3,171.5 M114.3,183H85.7c-0.3,0-0.6-0.3-0.6-0.6c0-0.3,0.3-0.6,0.6-0.6h28.7c0.3,0,0.6,0.3,0.6,0.6
		C114.9,182.7,114.7,183,114.3,183 M114.3,154.5H85.7c-0.3,0-0.6-0.3-0.6-0.6s0.3-0.6,0.6-0.6h28.7c0.3,0,0.6,0.3,0.6,0.6
		S114.7,154.5,114.3,154.5 M114.3,165.8H85.7c-0.3,0-0.6-0.3-0.6-0.6c0-0.3,0.3-0.6,0.6-0.6h28.7c0.3,0,0.6,0.3,0.6,0.6
		C114.9,165.6,114.7,165.8,114.3,165.8 M114.3,177.3H85.7c-0.3,0-0.6-0.3-0.6-0.6s0.3-0.6,0.6-0.6h28.7c0.3,0,0.6,0.3,0.6,0.6
		S114.7,177.3,114.3,177.3 M122.9,124.4C122.9,124.4,122.9,124.3,122.9,124.4c-1.8,0.1-2.6,1.8-3.4,3.4c-0.8,1.6-1.4,2.7-2.3,2.7
		c-1.1,0-1.7-1.3-2.4-2.6c-0.8-1.5-1.6-3.2-3.4-3.1c-1.7,0.1-2.6,1.6-3.3,3c-0.8,1.4-1.3,2.3-2.4,2.3c-1.1,0-1.7-1-2.4-2.2
		c-0.8-1.3-1.6-2.7-3.4-2.7c-1.7,0.1-2.6,1.4-3.3,2.5c-0.8,1.2-1.3,2-2.4,1.9c-1.1,0-1.7-0.9-2.4-1.8c-0.8-1.1-1.6-2.3-3.4-2.2
		c-1.7,0.1-2.5,1.1-3.3,2.1c-0.7,0.9-1.3,1.6-2.4,1.6c-0.3,0-0.6,0.2-0.6,0.6c0,0.3,0.2,0.6,0.6,0.6c1.7,0.1,2.6-1,3.4-2
		c0.7-0.9,1.3-1.6,2.4-1.6c1.1,0,1.6,0.6,2.4,1.7c0.7,1.1,1.6,2.2,3.3,2.3c1.8,0.1,2.6-1.3,3.4-2.4c0.7-1.1,1.3-2,2.4-2
		c1,0,1.6,0.8,2.4,2.1c0.7,1.3,1.6,2.7,3.3,2.7c1.8,0.1,2.7-1.5,3.4-2.9c0.7-1.2,1.3-2.3,2.4-2.4c1,0,1.6,0.9,2.4,2.5
		c0.7,1.5,1.6,3.1,3.3,3.2l0.1,0c1.8,0,2.6-1.8,3.3-3.3c0.7-1.4,1.3-2.7,2.3-2.7C122.9,125.5,122.9,124.4,122.9,124.4z"/>
	<path class="st1" d="M65.6,193.9h22.9V171H65.6V193.9z"/>
	<path class="st2" d="M100,179.6c-0.1,0-0.2,0-0.4,0c0-0.1,0-0.2-0.1-0.3c1.5-0.6,2.1-2.3,1.5-3.7c-0.4-1.1-1.5-1.8-2.6-1.8
		c-0.6,0-1.2,0.2-1.7,0.6c-0.1-0.1-0.1-0.1-0.2-0.2c0.4-0.5,0.6-1.1,0.6-1.7c0-1.6-1.3-2.9-2.9-2.9c-1.1,0-2.2,0.7-2.6,1.7
		c-0.1,0-0.2,0-0.3-0.1c0-0.1,0-0.2,0-0.4c0-1.6-1.3-2.9-2.9-2.9s-2.9,1.3-2.9,2.9c0,0.1,0,0.2,0,0.4c-0.1,0-0.2,0-0.3,0.1
		c-0.6-1.5-2.3-2.1-3.8-1.5c-1.1,0.4-1.7,1.5-1.7,2.6c0,0.6,0.2,1.2,0.6,1.7c-2.1,2.1-3.5,5-3.5,8.2c0,6.3,5.1,11.5,11.5,11.5
		c5.3,0,9.8-3.7,11.1-8.6c0.1,0,0.2,0,0.4,0c1.6,0,2.9-1.3,2.9-2.9S101.6,179.6,100,179.6"/>
	<path class="st1" d="M65.6,159.5h22.9v-11.5H65.6V159.5z"/>
	<path class="st2" d="M94.3,155.2c0.8,0,1.4-0.6,1.4-1.4s-0.6-1.4-1.4-1.4c-0.1,0-0.1,0-0.2,0c0,0,0-0.1,0-0.1
		c0.7-0.3,1.1-1.1,0.8-1.9c-0.2-0.5-0.7-0.9-1.3-0.9c-0.3,0-0.6,0.1-0.9,0.3c0,0-0.1-0.1-0.1-0.1c0.2-0.2,0.3-0.5,0.3-0.9
		c0-0.8-0.6-1.4-1.4-1.4c-0.6,0-1.1,0.3-1.3,0.9c-0.5-0.1-1-0.2-1.5-0.2c-3.2,0-5.7,2.6-5.7,5.7c0,3.2,2.6,5.7,5.7,5.7
		c0.5,0,1-0.1,1.5-0.2c0.3,0.7,1.2,1.1,1.9,0.8c0.5-0.2,0.9-0.7,0.9-1.3c0-0.3-0.1-0.6-0.3-0.9c0,0,0.1-0.1,0.1-0.1
		c0.2,0.2,0.5,0.3,0.9,0.3c0.8,0,1.4-0.6,1.4-1.4c0-0.6-0.3-1.1-0.9-1.3c0,0,0-0.1,0-0.1C94.2,155.2,94.2,155.2,94.3,155.2"/>
	<path class="st3" d="M100,113c-0.1,0-0.2,0-0.3,0c-0.1,0-0.2,0-0.3-0.1c-0.1,0-0.2-0.1-0.2-0.1c-0.1-0.1-0.1-0.1-0.2-0.2
		c-0.1-0.1-0.1-0.1-0.2-0.2c-0.1-0.1-0.1-0.2-0.1-0.2c-0.1-0.2-0.1-0.4-0.1-0.5c0-0.1,0-0.2,0-0.3c0-0.1,0-0.2,0.1-0.3
		c0-0.1,0.1-0.2,0.1-0.2c0.1-0.1,0.1-0.1,0.2-0.2c0.1-0.1,0.1-0.1,0.2-0.2c0.1-0.1,0.2-0.1,0.2-0.1c0.1,0,0.2-0.1,0.3-0.1
		c0.2,0,0.4,0,0.6,0c0.1,0,0.2,0,0.3,0.1c0.1,0,0.2,0.1,0.2,0.1c0.1,0.1,0.1,0.1,0.2,0.2c0.1,0.1,0.1,0.1,0.2,0.2
		c0.1,0.1,0.1,0.2,0.1,0.2c0,0.1,0.1,0.2,0.1,0.3c0,0.1,0,0.2,0,0.3c0,0.4-0.2,0.8-0.4,1c-0.1,0.1-0.1,0.1-0.2,0.2
		c-0.1,0.1-0.2,0.1-0.2,0.1C100.4,112.9,100.2,113,100,113 M111.5,112.3c-0.4,0-0.7-0.2-1-0.4c-0.1-0.1-0.1-0.1-0.2-0.2
		c-0.1-0.1-0.1-0.2-0.1-0.2c-0.1-0.2-0.1-0.4-0.1-0.5c0-0.4,0.2-0.7,0.4-1c0.1-0.1,0.1-0.1,0.2-0.2c0.1-0.1,0.2-0.1,0.2-0.1
		c0.1,0,0.2-0.1,0.3-0.1c0.2,0,0.4,0,0.6,0c0.1,0,0.2,0,0.3,0.1c0.1,0,0.2,0.1,0.2,0.1c0.1,0.1,0.1,0.1,0.2,0.2
		c0.3,0.3,0.4,0.6,0.4,1c0,0.1,0,0.2,0,0.3c0,0.1,0,0.2-0.1,0.3c0,0.1-0.1,0.2-0.1,0.2c-0.1,0.1-0.1,0.1-0.2,0.2
		c-0.1,0.1-0.1,0.1-0.2,0.2c-0.1,0.1-0.2,0.1-0.2,0.1C111.8,112.2,111.7,112.3,111.5,112.3"/>
</g>
</svg>
